<svg xmlns="http://www.w3.org/2000/svg" version="1.1" xmlns:xlink="http://www.w3.org/1999/xlink" xmlns:svgjs="http://svgjs.dev/svgjs" viewBox="0 0 10.430802343721874 7.308381561397683"><g transform="matrix(1,0,0,1,0.725288867173437,5.458825116099247)"><rect width="10.430802343721874" height="10.430802343721874" x="-0.725288867173437" y="-7.020035507261342" fill="#ffffff"></rect><g><path d=" M 0.075439453125 0.5625000000000002 Q 0.075439453125 0.4848632812500002 0.0955810546875 0.4127197265625002 Q 0.11572265625 0.3405761718750002 0.154541015625 0.2783203125000002 Q 0.193359375 0.21606445312500022 0.249755859375 0.16479492187500022 Q 0.30615234375 0.11352539062500022 0.3782958984375 0.07690429687500022 Q 0.450439453125 0.04028320312500022 0.53759765625 0.020141601562500222 Q 0.624755859375 2.220446049250313e-16 0.72509765625 2.220446049250313e-16 Q 0.78955078125 2.220446049250313e-16 0.8485107421875 0.008056640625000222 Q 0.907470703125 0.016113281250000222 0.95947265625 0.030395507812500222 Q 1.011474609375 0.04467773437500022 1.0557861328125 0.06335449218750022 Q 1.10009765625 0.08203125000000022 1.135986328125 0.10253906250000022 L 1.072998046875 0.22558593750000022 Q 1.031982421875 0.20581054687500022 0.9796142578125 0.19226074218750022 Q 0.92724609375 0.17871093750000022 0.870849609375 0.17871093750000022 Q 0.79541015625 0.17871093750000022 0.73095703125 0.20581054687500022 Q 0.66650390625 0.23291015625000022 0.61962890625 0.2827148437500002 Q 0.57275390625 0.3325195312500002 0.5460205078125 0.4031982421875002 Q 0.519287109375 0.4738769531250002 0.519287109375 0.5617675781250002 Q 0.519287109375 0.6489257812500002 0.545654296875 0.7196044921875002 Q 0.572021484375 0.7902832031250002 0.6185302734375 0.8404541015625002 Q 0.6650390625 0.8906250000000002 0.7291259765625 0.9180908203125002 Q 0.793212890625 0.9455566406250002 0.867919921875 0.9455566406250002 Q 0.920654296875 0.9455566406250002 0.973388671875 0.9327392578125002 Q 1.026123046875 0.9199218750000002 1.070068359375 0.8986816406250002 L 1.133056640625 1.0217285156250002 Q 1.09716796875 1.0429687500000002 1.05322265625 1.0612792968750002 Q 1.00927734375 1.0795898437500002 0.9580078125 1.0938720703125002 Q 0.90673828125 1.1081542968750002 0.84814453125 1.1162109375000002 Q 0.78955078125 1.1242675781250002 0.72509765625 1.1242675781250002 Q 0.574951171875 1.1242675781250002 0.4544677734375 1.0799560546875002 Q 0.333984375 1.0356445312500002 0.249755859375 0.9591064453125002 Q 0.16552734375 0.8825683593750002 0.1204833984375 0.7803955078125002 Q 0.075439453125 0.6782226562500002 0.075439453125 0.5625000000000002 M 1.311767578125 0.017578125000000222 L 1.735107421875 0.017578125000000222 L 1.735107421875 0.4738769531250002 L 2.0478515625 0.4738769531250002 L 2.0478515625 0.017578125000000222 L 2.471923828125 0.017578125000000222 L 2.47119140625 1.1059570312500002 L 2.0478515625 1.1059570312500002 L 2.0478515625 0.6416015625000002 L 1.735107421875 0.6416015625000002 L 1.735107421875 1.1059570312500002 L 1.311767578125 1.1059570312500002 L 1.311767578125 0.017578125000000222 M 3.05859375 0.2922363281250002 L 2.9326171875 0.017578125000000222 L 3.378662109375 0.017578125000000222 L 3.911865234375 1.1066894531250002 L 3.43359375 1.1066894531250002 L 3.35302734375 0.9323730468750002 L 2.923828125 0.9323730468750002 L 2.843994140625 1.1066894531250002 L 2.65869140625 1.1066894531250002 L 3.05859375 0.2922363281250002 M 3.276123046875 0.7646484375000002 L 3.138427734375 0.4658203125000002 L 3.00146484375 0.7646484375000002 L 3.276123046875 0.7646484375000002 M 4.259765625 0.18457031250000022 L 3.94921875 0.18457031250000022 L 3.94921875 0.016845703125000222 L 4.99365234375 0.016845703125000222 L 4.99365234375 0.18457031250000022 L 4.68310546875 0.18457031250000022 L 4.68310546875 1.1059570312500002 L 4.259765625 1.1059570312500002 L 4.259765625 0.18457031250000022 M 5.159912109375 0.017578125000000222 L 5.735595703125 0.017578125000000222 Q 5.857177734375 0.017578125000000222 5.9483642578125 0.03808593750000022 Q 6.03955078125 0.05859375000000022 6.1007080078125 0.09631347656250022 Q 6.161865234375 0.13403320312500022 6.192626953125 0.18713378906250022 Q 6.223388671875 0.24023437500000022 6.223388671875 0.3054199218750002 Q 6.223388671875 0.3706054687500002 6.1871337890625 0.4281005859375002 Q 6.15087890625 0.4855957031250002 6.081298828125 0.5273437500000002 Q 6.195556640625 0.5603027343750002 6.251953125 0.6240234375000002 Q 6.308349609375 0.6877441406250002 6.308349609375 0.7800292968750002 Q 6.308349609375 0.8430175781250002 6.2779541015625 0.9016113281250002 Q 6.24755859375 0.9602050781250002 6.1871337890625 1.0056152343750002 Q 6.126708984375 1.0510253906250002 6.035888671875 1.0784912109375002 Q 5.945068359375 1.1059570312500002 5.823486328125 1.1059570312500002 L 5.159912109375 1.1059570312500002 L 5.159912109375 0.017578125000000222 M 5.628662109375 0.4599609375000002 Q 5.688720703125 0.4599609375000002 5.729736328125 0.4486083984375002 Q 5.770751953125 0.4372558593750002 5.7952880859375 0.4174804687500002 Q 5.81982421875 0.3977050781250002 5.8304443359375 0.3720703125000002 Q 5.841064453125 0.3464355468750002 5.841064453125 0.3186035156250002 Q 5.841064453125 0.2907714843750002 5.8304443359375 0.2651367187500002 Q 5.81982421875 0.23950195312500022 5.7952880859375 0.22009277343750022 Q 5.770751953125 0.20068359375000022 5.729736328125 0.18896484375000022 Q 5.688720703125 0.17724609375000022 5.628662109375 0.17724609375000022 L 5.583984375 0.17724609375000022 L 5.583251953125 0.4599609375000002 L 5.628662109375 0.4599609375000002 M 5.628662109375 0.9462890625000002 Q 5.69384765625 0.9462890625000002 5.738525390625 0.9323730468750002 Q 5.783203125 0.9184570312500002 5.81103515625 0.8942871093750002 Q 5.8388671875 0.8701171875000002 5.851318359375 0.8375244140625002 Q 5.86376953125 0.8049316406250002 5.86376953125 0.7675781250000002 Q 5.86376953125 0.7346191406250002 5.8505859375 0.7031250000000002 Q 5.83740234375 0.6716308593750002 5.8114013671875 0.6470947265625002 Q 5.785400390625 0.6225585937500002 5.747314453125 0.6075439453125002 Q 5.709228515625 0.5925292968750002 5.659423828125 0.5925292968750002 L 5.583251953125 0.5925292968750002 L 5.583251953125 0.9462890625000002 L 5.628662109375 0.9462890625000002 M 6.4541015625 0.5595703125000002 Q 6.4541015625 0.4357910156250002 6.49365234375 0.3328857421875002 Q 6.533203125 0.22998046875000022 6.611572265625 0.15600585937500022 Q 6.68994140625 0.08203125000000022 6.80712890625 0.04101562500000022 Q 6.92431640625 2.220446049250313e-16 7.07958984375 2.220446049250313e-16 Q 7.23486328125 2.220446049250313e-16 7.35205078125 0.04101562500000022 Q 7.46923828125 0.08203125000000022 7.547607421875 0.15600585937500022 Q 7.6259765625 0.22998046875000022 7.66552734375 0.3328857421875002 Q 7.705078125 0.4357910156250002 7.705078125 0.5595703125000002 Q 7.705078125 0.6848144531250002 7.66552734375 0.7888183593750002 Q 7.6259765625 0.8928222656250002 7.547607421875 0.9667968750000002 Q 7.46923828125 1.0407714843750002 7.35205078125 1.0817871093750002 Q 7.23486328125 1.1228027343750002 7.07958984375 1.1228027343750002 Q 6.92431640625 1.1228027343750002 6.80712890625 1.0817871093750002 Q 6.68994140625 1.0407714843750002 6.611572265625 0.9667968750000002 Q 6.533203125 0.8928222656250002 6.49365234375 0.7888183593750002 Q 6.4541015625 0.6848144531250002 6.4541015625 0.5595703125000002 M 7.07958984375 0.9711914062500002 Q 7.12353515625 0.9711914062500002 7.1572265625 0.9558105468750002 Q 7.19091796875 0.9404296875000002 7.213623046875 0.8957519531250002 Q 7.236328125 0.8510742187500002 7.248046875 0.7705078125000002 Q 7.259765625 0.6899414062500002 7.259765625 0.5595703125000002 Q 7.259765625 0.4306640625000002 7.248046875 0.3508300781250002 Q 7.236328125 0.2709960937500002 7.213623046875 0.22705078125000022 Q 7.19091796875 0.18310546875000022 7.1572265625 0.16772460937500022 Q 7.12353515625 0.15234375000000022 7.07958984375 0.15234375000000022 Q 7.03564453125 0.15234375000000022 7.0015869140625 0.16772460937500022 Q 6.967529296875 0.18310546875000022 6.94482421875 0.22705078125000022 Q 6.922119140625 0.2709960937500002 6.910400390625 0.3508300781250002 Q 6.898681640625 0.4306640625000002 6.898681640625 0.5595703125000002 Q 6.898681640625 0.6899414062500002 6.910400390625 0.7705078125000002 Q 6.922119140625 0.8510742187500002 6.94482421875 0.8957519531250002 Q 6.967529296875 0.9404296875000002 7.0015869140625 0.9558105468750002 Q 7.03564453125 0.9711914062500002 7.07958984375 0.9711914062500002 M 8.162841796875 0.5830078125000002 L 7.809814453125 0.017578125000000222 L 8.2880859375 0.017578125000000222 L 8.50048828125 0.3574218750000002 L 8.71728515625 0.017578125000000222 L 8.908447265625 0.017578125000000222 L 8.590576171875 0.5024414062500002 L 8.968505859375 1.1059570312500002 L 8.490234375 1.1066894531250002 L 8.25146484375 0.7258300781250002 L 8.004638671875 1.1066894531250002 L 7.812744140625 1.1066894531250002 L 8.162841796875 0.5830078125000002" fill="#66eaa3" fill-rule="nonzero"></path></g><g></g><g clip-path="url(&quot;#SvgjsClipPath1002&quot;)"><g clip-path="url(&quot;#a51f355ad-c922-40d5-9ee6-52b47757823b8942d064-7e0b-455d-928f-66c64979e868&quot;)"><path d=" M 7.998818640526317 -4.06773310422278 C 7.688087793098799 -4.395453588318563 7.238627207861864 -4.577080894605474 6.771412199484618 -4.654994306513839 C 6.51609992880834 -4.697569526974189 4.942580205045619 -4.735574990250331 4.683159577288102 -4.733451285666798 C 4.412823360793199 -4.7312390933922845 2.642557576684605 -4.690010149944709 2.3765319748503257 -4.645804227750574 C 1.9076546619925174 -4.56789081584221 1.2983094602524605 -4.514052376429907 0.956216046921696 -4.212208221396578 C 0.512488199950428 -3.750675386890154 0.5971582791200932 -2.456688278934955 0.630827845538188 -2.0527293285100834 C 0.6468504381550222 -1.8605024609535734 0.6981796194730894 -1.653074672196479 0.8196795397387241 -1.4930762858049533 C 0.9404462762790923 -1.3340386229155015 1.0822225188779835 -1.1737937350991015 1.2762064991553927 -1.092069031929218 C 1.674021875606473 -0.9244543835640102 2.188287053387941 -0.9420128696742913 2.6191589029696076 -0.9634774552864278 C 3.5237875295117242 -1.0220183834194096 4.870323684810653 -0.9593943804026113 6.015575625326277 -0.7939034366209365 C 6.403897536645016 -0.7120333608158713 6.700008953412678 -0.5569017974282753 6.9058376431827675 -0.4471264962175603 C 6.905925321945834 -0.44708260611681716 6.906011737567262 -0.4470362367589775 6.906096785706353 -0.4469874441317332 C 7.016086985595163 -0.38814312962967534 7.260338294898873 -0.21253930687879574 7.342189409055872 -0.25718766752783395 C 7.397936654373612 -0.2891506856198749 7.238601925664439 -0.4836023865496095 7.197726932980786 -0.529527498168509 C 7.140835668229655 -0.5934408932538808 7.075961549642209 -0.6572658006482728 7.043878441112408 -0.7348884672862721 C 6.960858025324596 -0.935717602515961 7.222889039966039 -1.0413592644480132 7.39712130350672 -1.0800663087026434 C 7.517875398948376 -1.1068907201684577 7.64137261281043 -1.1279697522698933 7.75380254475056 -1.1772889988928323 C 7.839351180280674 -1.2148141004179371 7.919091230952851 -1.2645757854957784 7.98768183256148 -1.323407458899125 C 8.132978621151526 -1.4480360510958583 8.236964299152369 -1.6097599474615052 8.289330050564782 -1.7826269723413435 C 8.40145027558648 -2.152770983712938 8.495512691098794 -3.659880695394765 7.998818640526317 -4.06773310422278" fill="#a41e31" transform="matrix(1,0,0,1,0,0)" fill-rule="nonzero"></path></g></g></g><defs><clipPath id="SvgjsClipPath1002"><path d=" M 0.6015609829830311 -4.73353624892581 h 7.777102643408938 v 4.48353624892581 h -7.777102643408938 Z"></path></clipPath><clipPath id="a51f355ad-c922-40d5-9ee6-52b47757823b8942d064-7e0b-455d-928f-66c64979e868"><path d=" M 0.601563702021053 -0.2500012029103429 L 8.378664695158992 -0.2500012029103429 L 8.378664695158992 -4.733533452808422 L 0.601563702021053 -4.733533452808422 Z"></path></clipPath></defs></svg>