<?xml version="1.0" encoding="UTF-8" standalone="no"?>
<svg
   xmlns:dc="http://purl.org/dc/elements/1.1/"
   xmlns:cc="http://creativecommons.org/ns#"
   xmlns:rdf="http://www.w3.org/1999/02/22-rdf-syntax-ns#"
   xmlns:svg="http://www.w3.org/2000/svg"
   xmlns="http://www.w3.org/2000/svg"
   viewBox="0 0 1333.3333 1066.6667"
   height="1066.6667"
   width="1333.3333"
   xml:space="preserve"
   id="svg2"
   version="1.1"><metadata
     id="metadata8"><rdf:RDF><cc:Work
         rdf:about=""><dc:format>image/svg+xml</dc:format><dc:type
           rdf:resource="http://purl.org/dc/dcmitype/StillImage" /></cc:Work></rdf:RDF></metadata><defs
     id="defs6"><clipPath
       id="clipPath72"
       clipPathUnits="userSpaceOnUse"><path
         id="path70"
         d="m 5859.4,4201.37 c -19.79,123.6 -2.5,388.53 -2.5,388.53 0,0 39.28,-209.42 117.16,-239.49 125.07,191.42 197.82,420.1 197.82,665.82 0,673.31 -545.82,1219.15 -1219.14,1219.15 -173.45,0 -338.4,-36.3 -487.79,-101.6 85.35,23.82 175.31,36.6 268.26,36.6 549.94,0 995.76,-445.82 995.76,-995.76 0,-549.94 -445.82,-995.76 -995.76,-995.76 -533.84,0 -969.55,420.12 -994.59,947.78 -3.26,-36.38 -5.03,-73.18 -5.03,-110.41 0,-673.31 545.83,-1219.14 1219.15,-1219.14 234.59,0 453.62,66.4 639.55,181.22 94.62,-127.88 289.04,-294.87 674.12,-345.77 -291.63,217.73 -383.9,424.45 -407.01,568.83 z" /></clipPath><linearGradient
       id="linearGradient78"
       spreadMethod="pad"
       gradientTransform="matrix(-1.138e-4,2602.84,2602.84,1.138e-4,5000,3632.54)"
       gradientUnits="userSpaceOnUse"
       y2="0"
       x2="1"
       y1="0"
       x1="0"><stop
         id="stop74"
         offset="0"
         style="stop-opacity:1;stop-color:#383898" /><stop
         id="stop76"
         offset="1"
         style="stop-opacity:1;stop-color:#bb1e4b" /></linearGradient><clipPath
       id="clipPath88"
       clipPathUnits="userSpaceOnUse"><path
         id="path86"
         d="m 4053.3,5078.28 c 0,428.71 347.55,776.25 776.26,776.25 297.16,0 555.28,-167 685.73,-412.26 -110.07,328.79 -420.53,565.76 -786.37,565.76 -77.39,0 -152.3,-10.64 -223.36,-30.48 -349.4,-97.52 -605.75,-418.13 -605.75,-798.63 0,-13.4 0.35,-26.71 0.98,-39.95 16.53,-348.31 247.99,-640.3 564.67,-746.37 -245.2,130.47 -412.16,388.56 -412.16,685.68 z" /></clipPath><linearGradient
       id="linearGradient94"
       spreadMethod="pad"
       gradientTransform="matrix(-7.06e-5,1615.43,1615.43,7.06e-5,4707.56,4392.6)"
       gradientUnits="userSpaceOnUse"
       y2="0"
       x2="1"
       y1="0"
       x1="0"><stop
         id="stop90"
         offset="0"
         style="stop-opacity:1;stop-color:#383898" /><stop
         id="stop92"
         offset="1"
         style="stop-opacity:1;stop-color:#bb1e4b" /></linearGradient></defs><g
     transform="matrix(1.3333333,0,0,-1.3333333,0,1066.6667)"
     id="g10"><g
       transform="scale(0.1)"
       id="g12"><path
         id="path14"
         style="fill:#272626;fill-opacity:1;fill-rule:nonzero;stroke:none"
         d="m 3242.69,2337.55 c -38.5,-19.91 -123.48,-39.83 -231.03,-39.83 -284.15,0 -456.77,177.93 -456.77,450.13 0,294.77 204.49,472.7 478.01,472.7 107.56,0 184.57,-22.57 217.76,-39.84 l -35.85,-130.12 c -42.49,18.58 -100.91,34.52 -175.27,34.52 -181.91,0 -313.36,-114.19 -313.36,-329.3 0,-196.51 115.52,-322.65 312.03,-322.65 66.39,0 135.44,13.28 177.93,33.2 l 26.55,-128.81" /><path
         id="path16"
         style="fill:#272626;fill-opacity:1;fill-rule:nonzero;stroke:none"
         d="m 3371.49,3253.74 h 164.65 v -385.07 h 2.66 c 19.91,30.54 46.46,55.77 80.99,74.37 31.86,18.58 70.38,29.21 111.54,29.21 110.2,0 225.71,-73.04 225.71,-280.17 V 2311 h -163.31 v 362.49 c 0,94.27 -34.52,164.65 -124.81,164.65 -63.73,0 -108.88,-42.49 -126.15,-91.63 -5.3,-13.27 -6.63,-30.53 -6.63,-49.13 V 2311 h -164.65 v 942.74" /><path
         id="path18"
         style="fill:#272626;fill-opacity:1;fill-rule:nonzero;stroke:none"
         d="m 4473.54,2627.01 c -115.52,2.67 -225.73,-22.57 -225.73,-120.83 0,-63.73 41.16,-92.94 92.94,-92.94 65.07,0 112.87,42.49 127.48,88.97 3.98,11.94 5.31,25.21 5.31,35.84 z m 21.24,-316.01 -10.61,71.71 h -3.99 c -39.84,-50.46 -107.55,-86.31 -191.21,-86.31 -130.11,0 -203.15,94.27 -203.15,192.53 0,163.32 144.74,245.64 383.74,244.31 v 10.63 c 0,42.49 -17.27,112.85 -131.45,112.85 -63.74,0 -130.13,-19.9 -173.95,-47.79 l -31.87,106.22 c 47.81,29.22 131.45,57.1 233.7,57.1 207.14,0 266.89,-131.46 266.89,-272.2 v -233.69 c 0,-58.43 2.66,-115.53 9.29,-155.36 h -147.39" /><path
         id="path20"
         style="fill:#272626;fill-opacity:1;fill-rule:nonzero;stroke:none"
         d="m 4984.74,3142.21 v -184.57 h 155.35 V 2835.48 H 4984.74 V 2550 c 0,-78.34 21.24,-119.5 83.65,-119.5 27.87,0 49.12,3.98 63.73,7.97 l 2.66,-124.82 c -23.91,-9.29 -66.39,-15.93 -118.18,-15.93 -59.75,0 -110.2,19.92 -140.75,53.11 -34.52,37.19 -50.45,95.61 -50.45,180.59 v 304.06 h -92.95 v 122.16 h 92.95 v 146.06 l 159.34,38.51" /><path
         id="path22"
         style="fill:#272626;fill-opacity:1;fill-rule:nonzero;stroke:none"
         d="m 5715.02,2682.78 -87.64,257.59 c -19.91,58.43 -33.19,111.54 -46.47,163.33 h -2.66 c -13.27,-53.11 -27.88,-107.56 -45.13,-162 l -87.64,-258.92 z M 5421.57,2592.49 5328.62,2311 h -119.49 l 304.06,894.94 h 139.42 L 5958.01,2311 h -123.49 l -95.6,281.49 h -317.35" /><path
         id="path24"
         style="fill:#272626;fill-opacity:1;fill-rule:nonzero;stroke:none"
         d="m 6197.01,2572.58 c 0,-17.27 2.65,-33.2 5.3,-47.8 21.25,-81 91.63,-136.76 175.28,-136.76 123.49,0 195.18,100.91 195.18,248.29 0,128.8 -67.71,239 -191.2,239 -79.67,0 -154.02,-57.09 -176.59,-144.72 -3.99,-14.61 -7.97,-31.88 -7.97,-47.81 z m -115.52,171.29 c 0,82.31 -2.65,148.71 -5.31,209.78 h 104.89 l 5.32,-110.2 h 2.64 c 47.82,78.34 123.5,124.81 228.4,124.81 155.34,0 272.19,-131.44 272.19,-326.64 0,-231.03 -140.74,-345.22 -292.11,-345.22 -84.98,0 -159.34,37.17 -197.85,100.9 h -2.65 v -349.2 h -115.52 v 695.77" /><path
         id="path26"
         style="fill:#272626;fill-opacity:1;fill-rule:nonzero;stroke:none"
         d="m 6952.5,2572.58 c 0,-17.27 2.65,-33.2 5.3,-47.8 21.25,-81 91.62,-136.76 175.28,-136.76 123.49,0 195.18,100.91 195.18,248.29 0,128.8 -67.71,239 -191.2,239 -79.67,0 -154.02,-57.09 -176.59,-144.72 -4,-14.61 -7.97,-31.88 -7.97,-47.81 z m -115.52,171.29 c 0,82.31 -2.65,148.71 -5.31,209.78 h 104.89 l 5.32,-110.2 h 2.64 c 47.81,78.34 123.5,124.81 228.4,124.81 155.34,0 272.19,-131.44 272.19,-326.64 0,-231.03 -140.74,-345.22 -292.11,-345.22 -84.98,0 -159.34,37.17 -197.85,100.9 h -2.65 v -349.2 h -115.52 v 695.77" /><path
         id="path28"
         style="fill:#8d8d8d;fill-opacity:1;fill-rule:nonzero;stroke:none"
         d="m 2785.61,2021.35 17.45,-94.9 c 4,-20.01 6.19,-33.11 8,-46.2 h 0.73 c 4.72,11.27 9.82,23.65 18.9,42.91 l 44.74,98.19 h 32 l -65.82,-133.82 c -18.91,-38.18 -36.73,-69.09 -60.73,-92.36 -19.64,-20 -41.09,-28.37 -51.28,-30.55 l -7.27,25.82 c 7.64,2.91 20.38,7.64 32.37,17.08 11.64,9.1 24.36,23.28 33.82,40.38 1.45,2.9 1.45,5.08 1.09,8 l -35.28,165.45 h 31.28" /><path
         id="path30"
         style="fill:#8d8d8d;fill-opacity:1;fill-rule:nonzero;stroke:none"
         d="m 2938.3,1914.8 c 0,-28.73 15.65,-49.45 41.46,-49.45 35.64,0 62.55,45.82 62.55,86.92 0,20.35 -9.46,49.08 -41.09,49.08 -37.82,0 -63.28,-46.18 -62.92,-86.55 z m 134.91,37.09 c 0,-54.18 -38.53,-110.54 -97.45,-110.54 -43.99,0 -68.72,32.72 -68.72,72.36 0,57.82 40.36,111.63 97.44,111.63 47.65,0 68.73,-35.99 68.73,-73.45" /><path
         id="path32"
         style="fill:#8d8d8d;fill-opacity:1;fill-rule:nonzero;stroke:none"
         d="m 3265.91,2021.35 -23.63,-124.73 c -3.64,-19.64 -6.2,-36.73 -8,-51.28 H 3207 l 4.73,33.1 h -0.72 c -15.65,-22.9 -38.91,-37.09 -62.19,-37.09 -22.54,0 -46.18,10.91 -46.18,50.91 0,8.36 1.08,17.82 3.27,29.45 l 18.9,99.64 H 3155 l -18.54,-98.19 c -2.19,-9.81 -3.28,-18.18 -3.28,-25.82 0,-18.17 7.64,-30.53 28.36,-30.53 21.83,0 49.83,25.45 57.09,64.35 l 17.1,90.19 h 30.18" /><path
         id="path34"
         style="fill:#8d8d8d;fill-opacity:1;fill-rule:nonzero;stroke:none"
         d="m 3285.51,1845.34 21.45,113.46 c 4.36,22.91 7.27,46.18 9.08,62.55 h 26.56 c -1.46,-12.37 -2.91,-24.73 -4.74,-38.18 h 1.1 c 11.27,24 30.18,42.17 53.82,42.17 2.54,0 6.18,-0.36 8.36,-0.72 l -5.82,-29.82 c -1.81,0.37 -4.72,0.73 -8,0.73 -26.18,0 -49.46,-31.63 -57.1,-72.73 l -14.54,-77.46 h -30.17" /><path
         id="path36"
         style="fill:#8d8d8d;fill-opacity:1;fill-rule:nonzero;stroke:none"
         d="m 3546.2,2068.62 -9.09,-47.27 h 42.18 l -4.73,-23.64 h -42.19 l -16.35,-85.45 c -1.82,-9.82 -3.28,-18.92 -3.28,-28.37 0,-10.54 5.1,-16.72 16.73,-16.72 5.09,0 10.18,0.36 14.18,1.08 l -1.45,-23.63 c -5.45,-2.18 -14.55,-3.27 -23.27,-3.27 -26.91,0 -37.1,16.36 -37.1,34.18 0,10.17 1.09,20.37 3.64,33.08 l 17.46,89.1 h -25.46 l 4.73,23.64 h 25.09 l 7.64,39.64 31.27,7.63" /><path
         id="path38"
         style="fill:#8d8d8d;fill-opacity:1;fill-rule:nonzero;stroke:none"
         d="m 3717.45,1998.81 c -4.36,1.08 -10.92,2.54 -21.09,2.54 -45.45,0 -82.56,-47.64 -82.91,-96.37 0,-19.64 6.9,-38.91 30.17,-38.91 25.1,0 54.92,32.73 63.64,79.64 z m -19.64,-153.47 c 0,10.56 1.81,27.28 4,45.46 h -0.73 c -19.27,-36.37 -43.28,-49.45 -68.36,-49.45 -30.91,0 -50.55,24.72 -50.55,58.18 0,61.09 45.1,125.81 121.82,125.81 16.73,0 35.28,-2.9 47.27,-6.9 l -17.81,-91.63 c -5.82,-30.55 -8.36,-61.83 -7.64,-81.47 h -28" /><path
         id="path40"
         style="fill:#8d8d8d;fill-opacity:1;fill-rule:nonzero;stroke:none"
         d="m 3907.59,1995.17 c -5.45,2.54 -16.36,5.82 -29.09,5.82 -44,0 -74.18,-45.82 -74.54,-89.46 0,-19.27 6.91,-42.18 33.81,-42.18 25.83,0 52.01,32.72 58.55,67.27 z m -134.9,-189.83 c 10.54,-6.54 27.99,-11.63 46.54,-11.63 29.45,0 52.73,15.27 63.27,62.91 l 5.82,26.18 h -1.08 c -15.28,-25.09 -36.74,-37.46 -61.1,-37.46 -35.27,0 -53.45,29.83 -53.45,61.1 -0.38,59.63 43.63,118.9 111.64,118.9 20.35,0 42.54,-5.81 56.34,-12.36 l -26.9,-145.45 c -7.27,-37.1 -17.08,-62.91 -35.64,-78.56 -17.45,-15.26 -41.09,-19.62 -61.45,-19.62 -21.46,0 -41.46,5.08 -52.72,12.36 l 8.73,23.63" /><path
         id="path42"
         style="fill:#8d8d8d;fill-opacity:1;fill-rule:nonzero;stroke:none"
         d="m 3961.74,1845.34 49.09,258.2 h 30.18 l -49.46,-258.2 h -29.81" /><path
         id="path44"
         style="fill:#8d8d8d;fill-opacity:1;fill-rule:nonzero;stroke:none"
         d="m 4083.91,2070.44 c 0,11.63 9.09,20.36 19.99,20.36 10.91,0 17.83,-8 17.83,-18.91 -0.37,-12 -8.73,-20.37 -20.37,-20.37 -10.55,0 -17.45,8.01 -17.45,18.92 z m -39.27,-225.1 33.81,176.01 h 30.18 l -33.82,-176.01 h -30.17" /><path
         id="path46"
         style="fill:#8d8d8d;fill-opacity:1;fill-rule:nonzero;stroke:none"
         d="m 4127.88,1845.34 23.63,124.73 c 4.01,19.64 6.2,36.74 8.37,51.28 h 26.91 l -4.36,-34.55 h 0.72 c 15.65,24.73 39.28,38.54 65.1,38.54 21.09,0 44.73,-12 44.73,-49.08 0,-7.64 -1.46,-18.92 -3.28,-28.37 l -19.63,-102.55 h -30.2 l 19.28,101.46 c 1.47,6.91 2.55,15.27 2.55,22.55 0,17.82 -6.91,30.9 -27.63,30.9 -21.46,0 -52.01,-25.81 -60,-69.45 l -16.01,-85.46 h -30.18" /><path
         id="path48"
         style="fill:#8d8d8d;fill-opacity:1;fill-rule:nonzero;stroke:none"
         d="m 4415.49,2001.71 c -28.72,0 -50.19,-28 -57.45,-55.64 47.26,-0.36 84.36,5.82 84.36,33.1 0,14.54 -10.91,22.54 -26.91,22.54 z m 33.45,-146.17 c -13.09,-7.64 -34.55,-13.83 -58.19,-13.83 -46.54,0 -66.89,31.64 -66.89,70.55 0,53.08 39.27,113.08 95.99,113.08 33.46,0 51.64,-20 51.64,-45.09 0,-46.18 -52,-58.54 -117.09,-57.45 -1.46,-7.63 -0.37,-24 3.64,-33.45 6.91,-15.64 21.09,-23.64 39.27,-23.64 20.73,0 36.36,6.55 47.27,12.36 l 4.36,-22.53" /><path
         id="path50"
         style="fill:#8d8d8d;fill-opacity:1;fill-rule:nonzero;stroke:none"
         d="m 4689.62,1995.17 c -5.45,2.54 -16.37,5.82 -29.09,5.82 -44,0 -74.19,-45.82 -74.54,-89.46 0,-19.27 6.9,-42.18 33.81,-42.18 25.83,0 52.01,32.72 58.55,67.27 z m -134.91,-189.83 c 10.55,-6.54 28,-11.63 46.55,-11.63 29.45,0 52.72,15.27 63.26,62.91 l 5.82,26.18 h -1.08 c -15.28,-25.09 -36.73,-37.46 -61.1,-37.46 -35.26,0 -53.45,29.83 -53.45,61.1 -0.36,59.63 43.64,118.9 111.64,118.9 20.36,0 42.55,-5.81 56.36,-12.36 l -26.91,-145.45 c -7.27,-37.1 -17.09,-62.91 -35.63,-78.56 -17.46,-15.26 -41.1,-19.62 -61.47,-19.62 -21.44,0 -41.44,5.08 -52.71,12.36 l 8.72,23.63" /><path
         id="path52"
         style="fill:#8d8d8d;fill-opacity:1;fill-rule:nonzero;stroke:none"
         d="m 4777.22,1914.8 c 0,-28.73 15.63,-49.45 41.45,-49.45 35.64,0 62.55,45.82 62.55,86.92 0,20.35 -9.45,49.08 -41.09,49.08 -37.82,0 -63.27,-46.18 -62.91,-86.55 z m 134.91,37.09 c 0,-54.18 -38.55,-110.54 -97.45,-110.54 -44.01,0 -68.73,32.72 -68.73,72.36 0,57.82 40.36,111.63 97.45,111.63 47.64,0 68.73,-35.99 68.73,-73.45" /><path
         id="path54"
         style="fill:#8d8d8d;fill-opacity:1;fill-rule:nonzero;stroke:none"
         d="m 5027.72,2001.71 c -28.73,0 -50.17,-28 -57.45,-55.64 47.28,-0.36 84.37,5.82 84.37,33.1 0,14.54 -10.91,22.54 -26.92,22.54 z m 33.46,-146.17 c -13.08,-7.64 -34.55,-13.83 -58.18,-13.83 -46.54,0 -66.91,31.64 -66.91,70.55 0,53.08 39.27,113.08 96.01,113.08 33.44,0 51.62,-20 51.62,-45.09 0,-46.18 -51.99,-58.54 -117.08,-57.45 -1.45,-7.63 -0.37,-24 3.63,-33.45 6.91,-15.64 21.09,-23.64 39.27,-23.64 20.73,0 36.37,6.55 47.28,12.36 l 4.36,-22.53" /><path
         id="path56"
         style="fill:#8d8d8d;fill-opacity:1;fill-rule:nonzero;stroke:none"
         d="m 5100.42,1875.89 c 8.36,-5.08 23.63,-10.91 37.82,-10.91 20.36,0 33.45,13.09 33.45,28.72 0,13.83 -6.17,22.19 -24.36,32.37 -20.36,11.28 -31.64,26.92 -31.64,44.73 0,30.91 26.56,54.54 63.64,54.54 15.99,0 30.18,-4.36 36.73,-8.72 l -8.35,-22.91 c -6.2,3.63 -17.47,8 -30.55,8 -18.2,0 -31.28,-11.27 -31.28,-26.54 0,-12.74 8.37,-20.74 23.99,-29.46 19.64,-11.27 33.09,-26.54 33.09,-46.18 0,-37.1 -30.18,-57.82 -67.27,-57.82 -18.9,0 -35.63,5.82 -43.63,12 l 8.36,22.18" /><path
         id="path58"
         style="fill:#8d8d8d;fill-opacity:1;fill-rule:nonzero;stroke:none"
         d="m 5300.75,1845.34 49.08,258.2 h 30.18 l -21.82,-113.47 h 0.74 c 14.91,21.46 36.35,35.27 62.91,35.27 20,0 43.64,-12.36 43.64,-47.26 0,-9.46 -1.1,-20.74 -2.92,-29.82 l -19.64,-102.92 h -30.18 l 19.64,101.46 c 1.09,6.55 2.18,14.55 2.18,24.36 0,16.37 -7.64,29.09 -27.27,29.09 -23.28,0 -52.73,-27.27 -60,-66.9 l -16.36,-88.01 h -30.18" /><path
         id="path60"
         style="fill:#8d8d8d;fill-opacity:1;fill-rule:nonzero;stroke:none"
         d="m 5588.35,2001.71 c -28.73,0 -50.19,-28 -57.46,-55.64 47.27,-0.36 84.36,5.82 84.36,33.1 0,14.54 -10.9,22.54 -26.9,22.54 z m 33.45,-146.17 c -13.09,-7.64 -34.54,-13.83 -58.18,-13.83 -46.55,0 -66.91,31.64 -66.91,70.55 0,53.08 39.27,113.08 96,113.08 33.45,0 51.64,-20 51.64,-45.09 0,-46.18 -52.01,-58.54 -117.09,-57.45 -1.46,-7.63 -0.38,-24 3.63,-33.45 6.91,-15.64 21.09,-23.64 39.28,-23.64 20.72,0 36.35,6.55 47.26,12.36 l 4.37,-22.53" /><path
         id="path62"
         style="fill:#8d8d8d;fill-opacity:1;fill-rule:nonzero;stroke:none"
         d="m 5659.58,1845.34 21.46,113.46 c 4.36,22.91 7.27,46.18 9.09,62.55 h 26.54 c -1.45,-12.37 -2.9,-24.73 -4.73,-38.18 h 1.1 c 11.27,24 30.17,42.17 53.82,42.17 2.54,0 6.18,-0.36 8.36,-0.72 l -5.82,-29.82 c -1.81,0.37 -4.72,0.73 -7.99,0.73 -26.19,0 -49.47,-31.63 -57.1,-72.73 l -14.55,-77.46 h -30.18" /><path
         id="path64"
         style="fill:#8d8d8d;fill-opacity:1;fill-rule:nonzero;stroke:none"
         d="m 5866.47,2001.71 c -28.73,0 -50.17,-28 -57.46,-55.64 47.28,-0.36 84.38,5.82 84.38,33.1 0,14.54 -10.92,22.54 -26.92,22.54 z m 33.46,-146.17 c -13.09,-7.64 -34.55,-13.83 -58.18,-13.83 -46.55,0 -66.92,31.64 -66.92,70.55 0,53.08 39.28,113.08 96.01,113.08 33.45,0 51.63,-20 51.63,-45.09 0,-46.18 -51.99,-58.54 -117.09,-57.45 -1.44,-7.63 -0.36,-24 3.63,-33.45 6.92,-15.64 21.1,-23.64 39.28,-23.64 20.72,0 36.37,6.55 47.27,12.36 l 4.37,-22.53" /><g
         id="g66"><g
           clip-path="url(#clipPath72)"
           id="g68"><path
             id="path80"
             style="fill:url(#linearGradient78);fill-opacity:1;fill-rule:nonzero;stroke:none"
             d="m 5859.4,4201.37 c -19.79,123.6 -2.5,388.53 -2.5,388.53 0,0 39.28,-209.42 117.16,-239.49 125.07,191.42 197.82,420.1 197.82,665.82 0,673.31 -545.82,1219.15 -1219.14,1219.15 -173.45,0 -338.4,-36.3 -487.79,-101.6 85.35,23.82 175.31,36.6 268.26,36.6 549.94,0 995.76,-445.82 995.76,-995.76 0,-549.94 -445.82,-995.76 -995.76,-995.76 -533.84,0 -969.55,420.12 -994.59,947.78 -3.26,-36.38 -5.03,-73.18 -5.03,-110.41 0,-673.31 545.83,-1219.14 1219.15,-1219.14 234.59,0 453.62,66.4 639.55,181.22 94.62,-127.88 289.04,-294.87 674.12,-345.77 -291.63,217.73 -383.9,424.45 -407.01,568.83" /></g></g><g
         id="g82"><g
           clip-path="url(#clipPath88)"
           id="g84"><path
             id="path96"
             style="fill:url(#linearGradient94);fill-opacity:1;fill-rule:nonzero;stroke:none"
             d="m 4053.3,5078.28 c 0,428.71 347.55,776.25 776.26,776.25 297.16,0 555.28,-167 685.73,-412.26 -110.07,328.79 -420.53,565.76 -786.37,565.76 -77.39,0 -152.3,-10.64 -223.36,-30.48 -349.4,-97.52 -605.75,-418.13 -605.75,-798.63 0,-13.4 0.35,-26.71 0.98,-39.95 16.53,-348.31 247.99,-640.3 564.67,-746.37 -245.2,130.47 -412.16,388.56 -412.16,685.68" /></g></g></g></g></svg>